<?xml version="1.0" standalone="no"?>
<!DOCTYPE svg PUBLIC "-//W3C//DTD SVG 20010904//EN"
 "http://www.w3.org/TR/2001/REC-SVG-20010904/DTD/svg10.dtd">
<svg version="1.0" xmlns="http://www.w3.org/2000/svg"
 width="1280.000000pt" height="905.000000pt" viewBox="0 0 1280.000000 905.000000"
 preserveAspectRatio="xMidYMid meet">
<metadata>
Created by potrace 1.15, written by Peter Selinger 2001-2017
</metadata>
<g transform="translate(0.000000,905.000000) scale(0.100000,-0.100000)"
fill="#000000" stroke="none">
<path d="M8523 9019 c-8 -29 -10 -30 -74 -34 -204 -14 -393 -165 -504 -406
l-39 -85 -160 -12 c-89 -6 -204 -21 -256 -33 -74 -17 -143 -24 -315 -29 l-220
-6 -115 -42 c-96 -35 -116 -45 -119 -64 -1 -13 -34 -55 -71 -94 -37 -39 -87
-99 -111 -133 -39 -55 -46 -61 -78 -61 -20 0 -49 -7 -65 -15 -35 -18 -70 -19
-84 -2 -5 6 -16 32 -23 57 -18 60 -65 104 -182 170 l-97 54 0 58 c0 51 -3 60
-22 67 -13 5 -50 25 -82 45 -84 51 -119 49 -254 -13 -128 -59 -169 -71 -245
-71 -68 0 -112 16 -170 63 -84 69 -104 71 -177 22 -59 -40 -61 -40 -100 -20
-20 10 -33 29 -44 63 l-17 49 -127 18 c-152 22 -169 22 -222 -5 -38 -19 -47
-20 -98 -9 -31 6 -73 19 -92 29 -53 27 -124 94 -160 150 -29 45 -36 50 -69 50
-81 -1 -157 -60 -201 -159 -13 -28 -29 -51 -36 -51 -7 0 -26 12 -43 26 -30 25
-33 25 -74 12 -39 -12 -42 -15 -42 -49 0 -42 -16 -65 -53 -74 -38 -9 -50 -22
-62 -64 -7 -27 -23 -46 -66 -76 -114 -81 -168 -126 -193 -160 -22 -32 -29 -36
-65 -33 -33 3 -41 7 -46 28 -3 14 -14 26 -25 28 -11 2 -30 13 -42 24 -15 14
-28 18 -45 13 -35 -11 -98 -76 -98 -102 0 -27 -2 -28 -46 -7 -84 40 -155 -12
-226 -166 -27 -58 -57 -113 -66 -124 -9 -10 -54 -35 -99 -56 -71 -33 -86 -45
-112 -87 -37 -58 -40 -109 -10 -163 15 -26 20 -47 15 -64 -6 -26 -50 -56 -82
-56 -10 0 -36 -9 -59 -20 -59 -28 -82 -76 -100 -203 -8 -57 -18 -113 -21 -123
-10 -28 -63 -102 -102 -146 -29 -32 -41 -38 -73 -38 -37 0 -42 -3 -79 -62 -38
-60 -38 -63 -24 -97 8 -19 19 -40 25 -47 19 -23 -24 -76 -89 -108 -31 -16 -33
-20 -30 -64 l3 -47 -68 -45 -68 -45 4 -70 c2 -38 7 -79 11 -90 6 -18 0 -25
-44 -45 -56 -26 -90 -61 -90 -91 0 -15 -7 -19 -31 -19 -47 0 -111 -67 -103
-106 10 -51 -10 -81 -75 -114 l-60 -30 36 -76 c20 -42 32 -79 27 -83 -5 -4
-34 -14 -66 -21 -63 -14 -78 -33 -78 -100 0 -61 -15 -86 -75 -125 -62 -39 -71
-39 -141 1 -45 27 -81 30 -130 12 -27 -9 -38 -9 -59 2 -23 13 -34 11 -96 -10
-76 -26 -99 -51 -99 -110 0 -17 -7 -45 -16 -61 -27 -53 -154 -94 -154 -50 0
30 -36 67 -78 79 -55 17 -102 15 -102 -3 0 -35 -23 -65 -51 -65 -27 0 -59 22
-59 41 0 17 -36 9 -107 -25 -86 -41 -98 -59 -82 -119 31 -115 120 -261 206
-337 42 -37 134 -89 183 -103 9 -3 31 -44 49 -93 43 -113 93 -214 117 -235 11
-9 28 -18 40 -21 17 -4 23 1 33 28 7 19 18 34 25 34 10 0 9 -18 -5 -82 -27
-123 -27 -124 -55 -157 l-26 -31 19 -33 c10 -17 33 -41 51 -52 22 -14 31 -28
32 -47 0 -25 -4 -28 -34 -28 -29 0 -34 -4 -40 -31 -5 -27 0 -36 47 -82 30 -29
70 -83 91 -124 31 -59 48 -78 90 -104 82 -52 96 -67 85 -95 -7 -21 -5 -26 19
-36 15 -7 38 -20 51 -30 26 -20 81 -24 98 -7 17 17 50 -6 73 -50 11 -22 32
-48 47 -59 28 -19 141 -64 243 -97 30 -10 67 -24 82 -31 l27 -14 -42 -84 c-38
-77 -45 -86 -80 -96 -22 -6 -55 -27 -74 -47 -31 -30 -34 -38 -25 -58 29 -63
80 -100 232 -167 l35 -15 -40 -20 c-43 -22 -194 -63 -232 -63 -49 0 -18 -98
59 -183 39 -44 48 -49 104 -57 84 -11 98 -21 148 -99 43 -66 97 -121 119 -121
7 0 52 5 102 10 81 10 99 8 180 -12 114 -28 140 -52 179 -163 31 -87 52 -122
107 -175 20 -19 38 -42 41 -49 4 -13 9 -13 37 -2 52 22 105 93 151 200 47 113
70 139 161 179 37 17 73 40 82 52 11 15 21 19 38 15 36 -9 53 -25 89 -83 39
-64 53 -72 123 -72 48 0 60 -4 98 -36 23 -19 51 -42 63 -49 20 -15 20 -15 -4
-40 -31 -33 -61 -32 -127 6 l-54 31 -32 -32 c-18 -18 -76 -54 -129 -79 l-97
-46 68 -165 c93 -228 89 -223 177 -249 49 -14 74 -27 77 -39 3 -9 11 -41 17
-71 12 -50 16 -56 73 -92 34 -22 83 -47 109 -57 47 -16 48 -18 48 -58 l0 -40
115 -29 c106 -26 115 -30 109 -49 -16 -56 -79 -109 -151 -128 -36 -9 -43 -14
-43 -34 0 -21 -4 -23 -24 -18 -22 5 -27 0 -51 -49 -31 -67 -28 -86 26 -178
l40 -66 112 -28 c159 -39 264 -38 372 3 181 70 229 68 381 -13 l103 -55 150 0
150 0 29 -35 c34 -41 73 -55 160 -55 83 0 117 -16 177 -83 41 -44 62 -58 105
-71 136 -40 347 9 456 106 22 19 44 34 49 32 6 -1 31 -5 57 -9 33 -4 71 -22
125 -57 138 -90 183 -96 337 -44 56 19 115 37 131 40 45 9 90 -8 142 -54 l47
-41 95 6 c53 3 107 8 120 11 19 4 37 -9 95 -70 102 -107 124 -109 353 -34 126
41 132 44 133 70 0 45 20 54 127 61 54 4 99 10 101 14 12 39 49 76 103 104 67
36 89 69 89 132 0 39 16 56 82 87 40 19 56 36 110 120 l63 98 55 7 c30 4 84
18 119 31 46 17 84 24 138 24 84 0 426 60 510 90 30 10 93 45 140 76 122 81
144 87 288 80 66 -3 136 -10 155 -15 19 -5 61 -12 93 -16 45 -5 67 -14 100
-41 23 -19 59 -42 79 -52 31 -14 39 -24 46 -57 l8 -40 154 0 c141 0 158 2 191
21 l37 22 39 -23 c21 -13 60 -51 87 -84 l48 -59 41 13 c23 7 68 24 100 39 32
14 64 26 71 26 8 0 15 -18 19 -49 8 -70 42 -142 85 -184 51 -50 125 -84 347
-158 183 -61 194 -63 290 -63 115 0 199 14 223 38 13 13 18 45 23 151 l6 134
47 82 c60 103 65 131 34 195 -14 27 -33 94 -42 149 l-18 100 31 26 c17 14 31
32 31 39 0 8 -19 52 -42 99 l-42 85 47 90 c60 114 155 248 248 349 l72 79 -29
54 c-24 44 -33 53 -49 48 -40 -13 -75 -35 -86 -55 -6 -11 -13 -18 -16 -15 -13
13 48 84 91 106 l47 25 20 -24 19 -23 26 23 c53 48 70 68 94 116 40 78 69 113
93 113 14 0 41 18 67 45 52 53 87 61 208 46 81 -10 84 -10 205 28 67 21 136
42 154 45 23 5 34 15 41 36 7 18 19 30 34 32 22 3 23 8 29 98 4 52 12 124 19
158 10 58 8 169 -6 258 -3 24 3 40 31 75 19 24 35 48 35 52 0 4 -17 15 -37 24
-21 8 -39 16 -40 17 -2 1 4 34 12 72 26 122 22 145 -39 227 -106 143 -143 165
-301 176 -70 5 -111 13 -129 25 -25 16 -29 15 -101 -15 -142 -59 -306 -170
-403 -273 -29 -31 -57 -56 -61 -56 -15 0 -89 64 -121 104 -25 33 -36 39 -67
39 -33 0 -38 -3 -49 -34 -17 -47 -17 -74 1 -89 21 -17 19 -40 -4 -40 -23 0
-35 -48 -18 -69 10 -12 4 -13 -43 -8 -131 16 -304 77 -446 158 -79 45 -89 63
-59 106 13 19 12 24 -8 54 -14 21 -46 46 -82 64 l-60 30 -3 58 c-3 55 -6 61
-49 103 -25 24 -55 46 -65 50 -10 3 -18 9 -18 13 0 16 43 62 72 77 l30 16 -7
76 c-10 115 -28 200 -80 377 -64 223 -64 222 -21 335 l37 94 -7 135 -6 136 41
54 c38 50 41 57 41 118 0 61 3 68 35 104 45 51 47 96 5 179 -36 72 -37 98 -5
184 44 116 32 162 -58 233 -24 18 -30 33 -38 90 -7 51 -17 77 -39 105 -28 35
-30 42 -30 126 0 96 3 87 -90 258 l-34 61 -80 24 c-72 21 -81 27 -84 50 -2 18
-12 29 -35 37 -18 7 -57 37 -88 67 -53 51 -56 57 -62 112 -3 37 -18 85 -41
133 -20 41 -36 82 -36 90 0 11 -18 20 -62 29 -114 25 -117 28 -134 141 -9 66
-27 103 -75 154 -30 34 -49 46 -70 46 -25 0 -29 5 -43 54 -9 30 -16 65 -16 79
0 20 -14 35 -63 70 -117 83 -167 158 -133 196 25 27 20 58 -13 77 -32 19 -53
79 -87 256 -9 48 -25 101 -35 117 -9 15 -56 61 -102 100 -47 39 -88 79 -92 90
-3 10 -1 38 4 62 5 24 7 48 3 53 -28 48 -158 206 -172 211 -9 3 -30 1 -45 -5
-24 -9 -30 -7 -54 21 -90 108 -103 114 -171 79 -50 -25 -55 -25 -94 5 -18 14
-36 25 -39 25 -4 0 -10 -14 -14 -31z m99 -39 c7 0 27 9 43 20 17 11 44 20 62
20 27 0 38 -9 76 -57 44 -58 44 -58 93 -55 l50 2 74 -101 75 -100 0 -67 0 -66
89 -77 c49 -42 95 -88 102 -101 7 -13 24 -78 39 -143 36 -166 52 -211 81 -229
27 -19 31 -47 9 -66 -8 -7 -15 -20 -15 -30 0 -34 63 -111 135 -163 61 -43 74
-58 79 -87 3 -19 12 -57 19 -85 13 -46 17 -50 48 -55 24 -4 47 -18 76 -50 42
-46 56 -83 68 -178 8 -63 32 -85 106 -101 59 -13 89 -27 89 -43 0 -6 16 -45
35 -88 24 -54 35 -92 35 -125 0 -46 3 -51 61 -107 33 -33 76 -66 95 -74 25
-11 34 -20 34 -38 0 -21 10 -27 83 -50 l82 -26 57 -102 58 -103 0 -97 c0 -94
1 -97 34 -136 27 -33 35 -53 40 -104 7 -60 10 -65 62 -113 50 -47 54 -54 54
-96 0 -25 -11 -74 -25 -109 -32 -83 -32 -108 6 -183 18 -35 32 -79 33 -101 1
-33 -5 -43 -37 -70 -36 -30 -37 -32 -37 -101 0 -67 -2 -73 -41 -124 l-40 -54
7 -141 c6 -132 5 -144 -16 -191 -13 -27 -28 -74 -35 -103 -15 -60 -10 -90 56
-312 41 -139 69 -284 69 -356 0 -34 -5 -45 -27 -60 -29 -18 -53 -46 -65 -76
-5 -12 -1 -21 14 -29 11 -6 40 -29 64 -51 40 -37 44 -45 44 -88 0 -70 6 -79
76 -110 34 -16 70 -39 78 -53 15 -22 15 -27 1 -53 -29 -56 -23 -65 88 -126
158 -87 303 -136 445 -153 52 -6 62 -5 62 8 0 9 -4 19 -10 22 -19 12 -10 45
14 54 32 13 40 38 16 53 -22 14 -25 43 -10 82 16 42 50 34 99 -24 23 -27 62
-61 86 -76 l44 -25 78 78 c90 91 207 172 346 239 96 46 99 47 126 31 17 -10
69 -20 137 -25 157 -14 183 -29 287 -170 43 -57 47 -67 47 -120 0 -31 -7 -82
-15 -112 -8 -30 -15 -58 -15 -61 0 -3 19 -13 41 -22 l42 -16 -29 -38 c-29 -38
-29 -38 -29 -188 0 -82 -7 -205 -14 -272 -14 -111 -17 -123 -38 -132 -13 -6
-27 -21 -32 -35 -7 -16 -20 -26 -45 -30 -19 -4 -85 -23 -147 -42 -109 -35
-114 -35 -201 -26 -114 12 -150 4 -202 -47 -28 -27 -51 -41 -68 -41 -30 0 -49
-23 -96 -116 -30 -59 -81 -114 -106 -114 -6 0 -17 5 -23 11 -37 37 -151 -53
-177 -138 -11 -35 18 -29 56 11 50 52 69 53 96 6 l22 -39 -86 -103 c-103 -123
-201 -268 -245 -361 l-32 -69 42 -78 c22 -42 41 -85 41 -93 0 -9 -11 -24 -25
-33 -19 -12 -25 -25 -25 -53 1 -63 29 -199 50 -238 30 -57 26 -89 -26 -176
-50 -83 -63 -142 -64 -281 0 -77 -16 -106 -57 -106 -13 0 -47 -8 -75 -17 -44
-14 -63 -15 -130 -5 -94 14 -430 122 -511 165 -98 51 -145 124 -162 250 -4 32
-11 47 -21 47 -9 0 -52 -15 -97 -34 -123 -52 -115 -52 -169 14 -27 33 -68 71
-93 85 -40 24 -46 25 -60 11 -9 -8 -32 -20 -53 -26 -54 -15 -192 -24 -245 -16
-45 7 -47 9 -53 46 -5 33 -11 40 -36 45 -16 4 -52 27 -79 50 -33 30 -61 46
-86 50 -21 3 -74 12 -118 20 -236 42 -317 32 -457 -59 -54 -36 -126 -74 -161
-85 -99 -32 -387 -81 -480 -81 -66 0 -96 -5 -145 -25 -35 -14 -90 -29 -123
-34 -35 -4 -65 -14 -70 -22 -4 -8 -34 -52 -66 -99 -49 -72 -66 -89 -112 -111
-61 -29 -80 -56 -81 -115 0 -47 -23 -73 -98 -114 -26 -14 -56 -40 -67 -57 -23
-38 -29 -40 -147 -48 -92 -7 -88 -5 -102 -66 -4 -20 -14 -28 -48 -36 -24 -6
-81 -25 -128 -42 -94 -34 -174 -40 -218 -17 -15 8 -51 42 -81 76 l-54 63 -124
-8 -124 -7 -40 37 c-75 67 -129 71 -275 20 -155 -54 -222 -47 -340 38 -54 39
-128 67 -175 67 -21 0 -45 -13 -77 -39 -86 -71 -201 -111 -321 -111 -115 0
-146 12 -222 87 -74 72 -100 82 -213 83 -67 0 -70 1 -107 40 l-38 40 -146 0
-146 0 -119 62 c-113 59 -123 62 -187 62 -51 -1 -91 -9 -158 -34 -166 -60
-256 -62 -446 -10 l-76 21 -37 72 c-42 83 -43 89 -16 145 18 38 23 41 50 35
28 -5 30 -3 30 25 0 26 4 31 33 36 79 15 142 77 161 159 6 25 4 27 -23 27 -16
0 -57 9 -92 19 -35 10 -76 22 -91 25 -23 5 -27 12 -30 48 -3 35 -7 43 -29 49
-43 11 -132 59 -160 85 -18 18 -30 44 -38 84 -6 32 -18 63 -26 70 -7 6 -42 19
-76 28 -76 20 -76 20 -165 238 -56 136 -61 156 -46 161 56 18 181 85 201 107
l24 26 42 -24 c22 -13 57 -27 76 -31 30 -6 40 -2 67 23 18 17 32 34 32 39 0 5
-30 34 -66 63 -61 50 -71 54 -128 58 -69 5 -84 15 -122 79 -19 33 -38 50 -71
65 l-46 20 -21 -26 c-11 -14 -55 -41 -97 -60 -89 -40 -99 -53 -160 -191 -43
-98 -110 -186 -141 -184 -7 0 -38 29 -69 63 -43 48 -62 79 -79 132 -31 95 -56
141 -86 160 -52 35 -134 49 -280 49 -162 0 -156 -2 -220 95 -23 36 -50 72 -60
81 -26 22 -80 39 -124 39 -32 0 -43 6 -73 44 -52 63 -79 112 -75 137 3 19 15
24 93 40 86 18 195 63 202 84 2 6 -31 23 -73 39 -93 36 -156 77 -183 118 -20
32 -20 32 1 60 22 31 66 58 97 58 14 0 23 11 32 38 7 20 23 54 36 75 13 21 28
49 33 62 12 31 12 31 -170 95 -163 57 -203 79 -220 119 -20 50 -89 97 -105 71
-10 -16 -44 -12 -96 12 -39 19 -47 27 -42 43 3 11 6 24 7 29 0 5 -33 32 -74
60 -64 44 -80 61 -115 123 -22 40 -62 95 -89 122 -56 57 -57 81 -1 81 34 0 35
1 35 39 0 34 -5 42 -34 60 -19 12 -41 32 -50 46 -16 24 -15 27 9 63 15 22 33
76 45 132 11 52 23 103 26 113 5 15 1 18 -22 15 -26 -3 -33 -11 -61 -66 -1 -2
-11 1 -22 8 -25 13 -84 127 -131 251 l-32 86 -54 17 c-110 35 -227 152 -299
301 -45 92 -61 151 -48 171 9 13 127 74 144 74 6 0 19 -10 28 -21 12 -15 30
-22 57 -23 36 -1 41 2 59 39 22 43 27 44 98 23 38 -12 67 -48 67 -84 0 -14 7
-15 47 -9 92 14 138 55 148 133 11 75 13 78 71 101 62 23 99 27 110 10 7 -12
44 -8 90 12 29 11 37 10 102 -24 39 -20 76 -37 82 -37 14 0 58 32 105 76 26
23 35 41 40 80 11 90 12 91 62 108 25 9 57 16 70 16 20 0 23 4 17 28 -3 15
-18 53 -32 85 -14 31 -23 59 -21 60 2 2 25 16 51 31 57 32 72 56 69 112 -1 35
4 46 28 67 16 13 48 27 70 31 31 5 41 11 41 25 0 37 13 52 64 78 28 14 59 32
69 41 16 14 16 17 1 33 -10 11 -18 43 -21 81 l-5 63 41 23 c23 12 57 37 77 54
32 28 35 35 29 68 -6 35 -4 37 48 73 74 51 83 74 51 132 l-26 45 32 53 c38 61
45 67 86 67 66 0 169 143 186 257 30 203 52 244 144 263 67 14 101 41 110 86
5 27 2 40 -13 57 -11 12 -23 39 -26 60 -5 31 0 47 25 89 27 43 41 54 107 84
42 19 87 45 100 57 13 12 47 72 76 132 56 119 73 140 132 160 31 11 42 11 58
1 11 -7 32 -15 47 -18 25 -5 28 -2 28 22 0 20 12 38 40 64 46 41 62 44 97 16
14 -11 32 -20 39 -20 8 0 14 -11 14 -25 0 -23 3 -25 52 -25 49 0 54 2 97 50
25 28 89 81 141 118 82 58 96 72 106 107 9 34 17 42 50 53 48 16 64 36 64 79
0 22 6 36 19 43 25 13 61 13 61 0 0 -11 25 -25 61 -33 23 -6 27 -2 49 50 34
81 93 138 160 152 29 6 54 10 55 9 1 -2 16 -24 33 -49 44 -66 132 -143 183
-161 108 -37 130 -39 191 -11 l56 25 99 -16 c54 -9 113 -17 132 -18 29 -3 36
-8 50 -44 22 -57 37 -72 83 -85 38 -10 42 -9 72 20 37 36 84 48 117 30 13 -7
47 -29 74 -50 111 -83 216 -78 419 19 125 60 161 61 237 11 30 -19 62 -38 72
-42 13 -5 17 -18 17 -64 l0 -58 91 -50 c128 -70 175 -113 194 -180 14 -47 21
-55 50 -65 27 -9 40 -8 64 4 16 9 48 16 70 16 39 0 43 3 97 78 32 42 86 105
120 140 35 34 64 71 66 82 2 16 28 29 118 60 l115 40 189 0 c139 0 204 4 249
16 112 29 221 44 364 51 l141 6 21 54 c56 146 203 325 317 385 64 35 154 58
220 58 50 0 52 1 58 31 l6 31 34 -26 c19 -14 41 -26 48 -26z"/>
</g>
</svg>
