<svg xmlns="http://www.w3.org/2000/svg" viewBox="0 0 32 32" role="img" aria-label="WhatsApp">
  <circle cx="16" cy="16" r="16" fill="#25D366"/>
  <path fill="#fff" d="M23.4 8.5A10.3 10.3 0 0 0 7.2 20.9L5.8 26l5.2-1.4a10.3 10.3 0 0 0 12.4-16.1Zm-7.3 14.9c-1.6 0-3.2-.4-4.6-1.2l-.3-.2-3.1.8.8-3-.2-.3a8.1 8.1 0 1 1 7.4 3.9Zm4.5-6.1c-.2-.1-1.5-.7-1.7-.8-.2-.1-.4-.1-.6.1l-.8 1c-.1.2-.3.2-.5.1a6.6 6.6 0 0 1-2-1.2 7.4 7.4 0 0 1-1.4-1.8c-.1-.2 0-.4.1-.5l.4-.5.3-.5c.1-.2 0-.4 0-.5l-.8-1.9c-.2-.5-.4-.4-.6-.4h-.5c-.2 0-.5.1-.7.3-.2.2-.9.9-.9 2.1s.9 2.5 1 2.6c.1.2 1.8 2.8 4.4 3.9.6.3 1.1.4 1.5.6.6.2 1.2.2 1.7.1.5-.1 1.5-.6 1.7-1.2.2-.6.2-1.1.2-1.2-.1-.1-.3-.2-.5-.3Z"/>
</svg>
